<svg width="602" height="604" viewBox="0 0 602 604" fill="none" xmlns="http://www.w3.org/2000/svg">
<path d="M312.363 12V3.27273H315.415C316.023 3.27273 316.524 3.37784 316.919 3.58807C317.314 3.79545 317.608 4.07528 317.801 4.42756C317.994 4.77699 318.091 5.16477 318.091 5.59091C318.091 5.96591 318.024 6.27557 317.89 6.51989C317.76 6.7642 317.586 6.95739 317.371 7.09943C317.157 7.24148 316.926 7.34659 316.676 7.41477V7.5C316.943 7.51705 317.211 7.6108 317.481 7.78125C317.751 7.9517 317.977 8.19602 318.159 8.5142C318.341 8.83239 318.432 9.22159 318.432 9.68182C318.432 10.1193 318.332 10.5128 318.133 10.8622C317.934 11.2116 317.621 11.4886 317.192 11.6932C316.763 11.8977 316.204 12 315.517 12H312.363ZM313.42 11.0625H315.517C316.207 11.0625 316.697 10.929 316.987 10.6619C317.28 10.392 317.426 10.0653 317.426 9.68182C317.426 9.38636 317.351 9.11364 317.2 8.86364C317.05 8.6108 316.835 8.40909 316.557 8.25852C316.278 8.10511 315.949 8.02841 315.568 8.02841H313.42V11.0625ZM313.42 7.10795H315.381C315.699 7.10795 315.986 7.04545 316.241 6.92045C316.5 6.79545 316.704 6.61932 316.855 6.39205C317.008 6.16477 317.085 5.89773 317.085 5.59091C317.085 5.20739 316.952 4.8821 316.684 4.61506C316.417 4.34517 315.994 4.21023 315.415 4.21023H313.42V7.10795Z" fill="black"/>
<path d="M406.074 32.6072L408.646 24.2677L413.679 25.8202L413.403 26.716L409.38 25.475L408.511 28.2929L412.273 29.4535L411.997 30.3493L408.234 29.1887L407.36 32.0229L411.448 33.284L411.172 34.1798L406.074 32.6072Z" fill="black"/>
<path d="M491.25 75.554C491.451 75.1684 491.468 74.7746 491.302 74.3726C491.136 73.9705 490.835 73.6207 490.398 73.323C490.079 73.1054 489.765 72.9666 489.455 72.9066C489.147 72.8483 488.865 72.8639 488.608 72.9534C488.353 73.0445 488.148 73.2051 487.991 73.4351C487.859 73.6276 487.792 73.8243 487.79 74.0252C487.791 74.2253 487.833 74.4208 487.916 74.6116C488.001 74.8 488.103 74.9779 488.222 75.1454C488.344 75.3106 488.459 75.4564 488.569 75.5828L489.167 76.2793C489.321 76.4566 489.483 76.6671 489.654 76.9108C489.827 77.1561 489.968 77.4259 490.077 77.7201C490.19 78.0136 490.236 78.3238 490.216 78.6506C490.197 78.9774 490.071 79.3098 489.841 79.6478C489.575 80.0374 489.233 80.3199 488.814 80.4952C488.398 80.6721 487.932 80.7205 487.416 80.6402C486.902 80.5616 486.368 80.3335 485.814 79.9558C485.298 79.6037 484.908 79.2155 484.643 78.7912C484.381 78.3685 484.244 77.9345 484.231 77.4891C484.221 77.0454 484.336 76.6168 484.577 76.2032L485.478 76.8177C485.316 77.106 485.254 77.3938 485.292 77.681C485.334 77.9675 485.448 78.2381 485.636 78.493C485.827 78.7472 486.066 78.9719 486.352 79.1671C486.685 79.3943 487.021 79.5444 487.36 79.6173C487.701 79.6878 488.015 79.6784 488.303 79.5892C488.592 79.4977 488.826 79.3205 489.005 79.0576C489.169 78.8182 489.235 78.5777 489.203 78.3363C489.172 78.0948 489.079 77.8528 488.925 77.61C488.771 77.3673 488.591 77.1243 488.385 76.8811L487.671 76.0226C487.218 75.4766 486.929 74.9413 486.806 74.4168C486.682 73.8923 486.786 73.3871 487.117 72.9012C487.392 72.4975 487.741 72.2198 488.165 72.0682C488.592 71.9159 489.047 71.8828 489.532 71.969C490.02 72.0544 490.495 72.254 490.955 72.5676C491.419 72.8845 491.776 73.2495 492.024 73.6626C492.273 74.0734 492.406 74.4939 492.422 74.9243C492.44 75.3563 492.331 75.7583 492.095 76.1301L491.25 75.554Z" fill="black"/>
<path d="M550.634 142.133L551.367 141.548L555.448 146.666L554.715 147.25L553.004 145.105L546.914 149.962L546.255 149.135L552.345 144.279L550.634 142.133Z" fill="black"/>
<path d="M588.704 263.716L597.407 263.064L597.627 266.005C597.678 266.687 597.597 267.255 597.383 267.707C597.172 268.161 596.866 268.509 596.465 268.75C596.065 268.99 595.608 269.13 595.095 269.169C594.582 269.207 594.108 269.137 593.673 268.959C593.239 268.783 592.88 268.488 592.599 268.074C592.32 267.659 592.155 267.113 592.104 266.436L591.946 264.328L592.881 264.258L593.036 266.331C593.071 266.799 593.18 267.168 593.363 267.439C593.546 267.711 593.779 267.9 594.064 268.007C594.351 268.116 594.669 268.158 595.017 268.132C595.366 268.106 595.673 268.017 595.938 267.866C596.203 267.718 596.403 267.495 596.537 267.197C596.674 266.899 596.725 266.514 596.69 266.041L596.551 264.188L588.783 264.77L588.704 263.716Z" fill="black"/>
<path d="M583.515 365.532L592.023 367.474L591.788 368.504L584.194 366.771L583.291 370.726L582.377 370.517L583.515 365.532Z" fill="black"/>
<path d="M549.771 450.378L550.325 449.419L556.281 456.558L555.736 457.503L546.575 455.914L547.129 454.955L554.796 456.369L554.83 456.31L549.771 450.378ZM552.519 452.437L550.286 456.305L549.474 455.836L551.707 451.969L552.519 452.437Z" fill="black"/>
<path d="M489.038 529.167L489.813 528.449C490.066 528.629 490.327 528.75 490.598 528.813C490.867 528.877 491.136 528.891 491.405 528.855C491.673 528.823 491.933 528.745 492.183 528.622C492.432 528.498 492.664 528.338 492.876 528.141C493.263 527.782 493.523 527.358 493.656 526.871C493.787 526.385 493.768 525.866 493.6 525.313C493.43 524.762 493.087 524.209 492.573 523.655C492.059 523.101 491.534 522.719 490.997 522.508C490.458 522.298 489.942 522.241 489.448 522.335C488.952 522.431 488.51 522.659 488.122 523.018C487.91 523.215 487.733 523.434 487.591 523.674C487.45 523.914 487.352 524.165 487.298 524.429C487.244 524.696 487.238 524.966 487.283 525.239C487.326 525.516 487.428 525.786 487.587 526.05L486.812 526.768C486.567 526.387 486.402 525.996 486.316 525.595C486.231 525.194 486.219 524.796 486.28 524.403C486.342 524.011 486.473 523.636 486.671 523.277C486.868 522.921 487.127 522.593 487.45 522.293C487.996 521.787 488.605 521.47 489.277 521.343C489.949 521.215 490.635 521.284 491.335 521.549C492.034 521.815 492.697 522.285 493.323 522.959C493.949 523.634 494.368 524.33 494.581 525.048C494.793 525.765 494.811 526.455 494.633 527.115C494.456 527.776 494.094 528.36 493.548 528.866C493.226 529.165 492.879 529.4 492.509 529.569C492.137 529.74 491.752 529.841 491.355 529.872C490.96 529.906 490.565 529.865 490.171 529.75C489.78 529.636 489.402 529.442 489.038 529.167Z" fill="black"/>
<path d="M407.141 570.913L410.928 578.776L406.182 581.062L405.775 580.217L409.569 578.39L408.289 575.733L404.742 577.442L404.335 576.597L407.883 574.889L406.596 572.217L402.741 574.073L402.334 573.228L407.141 570.913Z" fill="black"/>
<path d="M272.479 591.17L271.178 599.799L266.004 599.019L266.143 598.092L270.273 598.715L270.712 595.799L266.971 595.235L267.11 594.308L270.852 594.872L271.434 591.012L272.479 591.17Z" fill="black"/>
<path d="M180.884 571.576C181.284 570.747 181.779 570.102 182.369 569.642C182.959 569.182 183.595 568.914 184.274 568.838C184.954 568.762 185.63 568.885 186.3 569.208C186.971 569.531 187.488 569.982 187.853 570.561C188.217 571.14 188.404 571.804 188.412 572.552C188.421 573.301 188.225 574.089 187.826 574.919C187.427 575.748 186.932 576.393 186.341 576.852C185.751 577.312 185.116 577.58 184.436 577.656C183.756 577.733 183.081 577.609 182.41 577.286C181.74 576.963 181.222 576.512 180.858 575.933C180.493 575.354 180.307 574.691 180.298 573.942C180.29 573.194 180.485 572.405 180.884 571.576ZM181.806 572.02C181.478 572.7 181.315 573.33 181.317 573.908C181.317 574.485 181.452 574.987 181.723 575.413C181.991 575.839 182.363 576.166 182.839 576.396C183.315 576.625 183.804 576.712 184.307 576.658C184.807 576.602 185.283 576.395 185.737 576.036C186.187 575.676 186.577 575.156 186.905 574.475C187.232 573.794 187.397 573.165 187.397 572.588C187.395 572.01 187.259 571.509 186.991 571.083C186.721 570.656 186.347 570.328 185.871 570.099C185.395 569.87 184.907 569.783 184.408 569.839C183.905 569.893 183.429 570.1 182.978 570.46C182.524 570.819 182.134 571.339 181.806 572.02Z" fill="black"/>
<path d="M109.188 521.5L103.252 527.897L101.09 525.892C100.591 525.428 100.26 524.962 100.097 524.493C99.9331 524.027 99.9112 523.575 100.031 523.136C100.152 522.697 100.387 522.289 100.736 521.913C101.086 521.536 101.473 521.273 101.898 521.124C102.323 520.976 102.772 520.966 103.245 521.095C103.716 521.226 104.2 521.522 104.695 521.982L106.445 523.605L105.795 524.304L104.071 522.704C103.729 522.388 103.408 522.182 103.107 522.089C102.804 521.994 102.521 521.995 102.257 522.091C101.989 522.187 101.736 522.364 101.499 522.62C101.261 522.876 101.101 523.144 101.019 523.425C100.937 523.705 100.953 523.995 101.067 524.294C101.179 524.596 101.407 524.907 101.753 525.228L103.115 526.491L108.413 520.781L109.188 521.5ZM103.51 521.58L104.602 517.245L105.502 518.08L104.385 522.391L103.51 521.58Z" fill="black"/>
<path d="M40.868 431.419L32.8066 434.763L31.6769 432.039C31.4146 431.407 31.3143 430.842 31.3761 430.346C31.4341 429.848 31.6158 429.422 31.921 429.068C32.2262 428.714 32.6163 428.439 33.0913 428.242C33.5662 428.045 34.0382 427.963 34.5071 427.996C34.9749 428.026 35.4076 428.194 35.805 428.5C36.1998 428.807 36.5273 429.274 36.7874 429.901L37.5972 431.853L36.7312 432.212L35.9345 430.292C35.7549 429.859 35.5359 429.542 35.2775 429.342C35.0191 429.141 34.7381 429.035 34.4346 429.022C34.1274 429.008 33.8124 429.068 33.4896 429.202C33.1668 429.336 32.9032 429.516 32.6987 429.742C32.4932 429.966 32.3732 430.24 32.3388 430.565C32.3018 430.891 32.3741 431.273 32.5559 431.711L33.2677 433.428L40.4631 430.443L40.868 431.419Z" fill="black"/>
<path d="M13.5172 345.777L4.86248 346.9L4.7265 345.852L12.4515 344.849L11.9295 340.826L12.8592 340.706L13.5172 345.777Z" fill="black"/>
<path d="M13.6833 252.856L13.402 253.928L5.77425 248.613L6.05121 247.557L15.3061 246.674L15.0248 247.745L7.25683 248.403L7.23952 248.469L13.6833 252.856ZM10.4898 251.595L11.6236 247.275L12.5303 247.513L11.3965 251.833L10.4898 251.595Z" fill="black"/>
<path d="M39.3732 154.915L46.9703 159.21L46.467 160.101L38.1615 160.868L38.1195 160.942L44.0844 164.315L43.5643 165.235L35.9672 160.939L36.4705 160.049L44.7993 159.275L44.8412 159.201L38.8614 155.82L39.3732 154.915Z" fill="black"/>
<path d="M92.8706 88.4952L92.1488 87.8969L96.3258 82.8575L97.0476 83.4557L95.2963 85.5686L101.294 90.5397L100.619 91.3533L94.6219 86.3823L92.8706 88.4952Z" fill="black"/>
<path d="M179.733 31.1997C179.557 30.8022 179.26 30.543 178.843 30.4221C178.425 30.3013 177.963 30.3187 177.458 30.4745C177.089 30.5884 176.785 30.7477 176.545 30.9526C176.307 31.1566 176.143 31.387 176.053 31.6438C175.966 31.8997 175.963 32.1607 176.045 32.4267C176.114 32.6493 176.226 32.8244 176.381 32.9519C176.538 33.0758 176.717 33.1648 176.918 33.2187C177.118 33.27 177.321 33.3011 177.527 33.312C177.731 33.3202 177.917 33.3208 178.084 33.3138L179.002 33.2806C179.237 33.2706 179.502 33.2748 179.799 33.2932C180.099 33.3107 180.398 33.3687 180.696 33.4671C180.996 33.5619 181.267 33.719 181.51 33.9383C181.753 34.1577 181.935 34.4628 182.056 34.8537C182.195 35.3044 182.202 35.748 182.078 36.1846C181.957 36.6204 181.704 37.015 181.32 37.3685C180.938 37.7211 180.427 37.9962 179.786 38.1938C179.189 38.3781 178.642 38.4412 178.145 38.3833C177.652 38.3245 177.227 38.1613 176.871 37.8936C176.517 37.625 176.254 37.2677 176.081 36.8217L177.123 36.5001C177.247 36.8067 177.434 37.0346 177.682 37.184C177.932 37.3298 178.215 37.409 178.531 37.4215C178.849 37.4305 179.173 37.3839 179.505 37.2817C179.89 37.1628 180.217 36.9936 180.485 36.7741C180.753 36.5519 180.941 36.3005 181.051 36.0199C181.16 35.7366 181.167 35.4429 181.073 35.1389C180.988 34.862 180.841 34.6605 180.633 34.5345C180.424 34.4085 180.177 34.3301 179.891 34.2994C179.605 34.2687 179.303 34.2579 178.985 34.2669L177.868 34.2902C177.159 34.3039 176.561 34.1956 176.074 33.9653C175.586 33.7351 175.256 33.339 175.083 32.777C174.939 32.3101 174.939 31.864 175.085 31.4386C175.232 31.0097 175.49 30.6327 175.86 30.3077C176.231 29.9791 176.683 29.7327 177.215 29.5686C177.752 29.4028 178.26 29.3518 178.737 29.4156C179.214 29.4766 179.625 29.6351 179.972 29.8909C180.321 30.1459 180.567 30.4817 180.711 30.8983L179.733 31.1997Z" fill="black"/>
</svg>
